<svg version="1.1" xmlns="http://www.w3.org/2000/svg">
<path stroke-linecap="round" stroke="black" stroke-width="1" d="M10 0 L10 20 M10 10 L20 10"></path>
<path stroke-linecap="round" stroke="black" stroke-width="1" d="M10 20 L10 40 M10 30 L20 30"></path>
<path stroke-linecap="round" stroke="black" stroke-width="1" d="M10 40 L10 60 M10 50 L20 50"></path>
<path stroke-linecap="round" stroke="black" stroke-width="1" d="M10 60 L10 80 M10 70 L20 70"></path>
<path stroke-linecap="round" stroke="black" stroke-width="1" d="M10 80 L10 100 M10 90 L20 90"></path>
<path stroke-linecap="round" stroke="black" stroke-width="1" d="M10 100 L10 120 M10 110 L20 110"></path>
<path stroke-linecap="round" stroke="black" stroke-width="1" d="M10 120 L10 140 M10 130 L20 130"></path>
<path stroke-linecap="round" stroke="black" stroke-width="1" d="M10 140 L10 160 M10 150 L20 150"></path>
<path stroke-linecap="round" stroke="black" stroke-width="1" d="M10 160 L10 180 M10 170 L20 170"></path>
<path stroke-linecap="round" stroke="black" stroke-width="1" d="M10 180 L10 200 M10 190 L20 190"></path>
<path stroke-linecap="round" stroke="black" stroke-width="1" d="M10 200 L10 210 M10 210 L20 210"></path>
<path stroke-linecap="round" stroke="black" stroke-width="1" d="M30 0 L30 20 M20 10 L40 10"></path>
<path stroke-linecap="round" stroke="black" stroke-width="1" d="M30 20 L30 40 M20 30 L40 30"></path>
<path stroke-linecap="round" stroke="black" stroke-width="1" d="M30 40 L30 60 M20 50 L40 50"></path>
<path stroke-linecap="round" stroke="black" stroke-width="1" d="M30 60 L30 80 M20 70 L40 70"></path>
<path stroke-linecap="round" stroke="black" stroke-width="1" d="M30 80 L30 100 M20 90 L40 90"></path>
<path stroke-linecap="round" stroke="black" stroke-width="1" d="M30 100 L30 120 M20 110 L40 110"></path>
<path stroke-linecap="round" stroke="black" stroke-width="1" d="M30 120 L30 140 M20 130 L40 130"></path>
<path stroke-linecap="round" stroke="black" stroke-width="1" d="M30 140 L30 160 M20 150 L40 150"></path>
<circle cx="30" cy="170" fill="white" stroke="black" r="9.6"></circle>
<path stroke-linecap="round" stroke="black" stroke-width="1" d="M30 180 L30 200 M20 190 L40 190"></path>
<path stroke-linecap="round" stroke="black" stroke-width="1" d="M30 200 L30 210 M20 210 L40 210"></path>
<path stroke-linecap="round" stroke="black" stroke-width="1" d="M50 0 L50 20 M40 10 L60 10"></path>
<path stroke-linecap="round" stroke="black" stroke-width="1" d="M50 20 L50 40 M40 30 L60 30"></path>
<circle cx="50" cy="50" fill="black" r="10"></circle>
<path stroke-linecap="round" stroke="black" stroke-width="1" d="M50 60 L50 80 M40 70 L60 70"></path>
<path stroke-linecap="round" stroke="black" stroke-width="1" d="M50 80 L50 100 M40 90 L60 90"></path>
<path stroke-linecap="round" stroke="black" stroke-width="1" d="M50 100 L50 120 M40 110 L60 110"></path>
<circle cx="50" cy="130" fill="white" stroke="black" r="9.6"></circle>
<path stroke-linecap="round" stroke="black" stroke-width="1" d="M50 140 L50 160 M40 150 L60 150"></path>
<circle cx="50" cy="170" fill="white" stroke="black" r="9.6"></circle>
<circle cx="50" cy="190" fill="black" r="10"></circle>
<path stroke-linecap="round" stroke="black" stroke-width="1" d="M50 200 L50 210 M40 210 L60 210"></path>
<path stroke-linecap="round" stroke="black" stroke-width="1" d="M70 0 L70 20 M60 10 L80 10"></path>
<path stroke-linecap="round" stroke="black" stroke-width="1" d="M70 20 L70 40 M60 30 L80 30"></path>
<circle cx="70" cy="30" r="3" fill="black"></circle>
<path stroke-linecap="round" stroke="black" stroke-width="1" d="M70 40 L70 60 M60 50 L80 50"></path>
<path stroke-linecap="round" stroke="black" stroke-width="1" d="M70 60 L70 80 M60 70 L80 70"></path>
<path stroke-linecap="round" stroke="black" stroke-width="1" d="M70 80 L70 100 M60 90 L80 90"></path>
<path stroke-linecap="round" stroke="black" stroke-width="1" d="M70 100 L70 120 M60 110 L80 110"></path>
<path stroke-linecap="round" stroke="black" stroke-width="1" d="M70 120 L70 140 M60 130 L80 130"></path>
<circle cx="70" cy="150" fill="white" stroke="black" r="9.6"></circle>
<circle cx="70" cy="170" fill="black" r="10"></circle>
<path stroke-linecap="round" stroke="black" stroke-width="1" d="M70 180 L70 200 M60 190 L80 190"></path>
<path stroke-linecap="round" stroke="black" stroke-width="1" d="M70 200 L70 210 M60 210 L80 210"></path>
<path stroke-linecap="round" stroke="black" stroke-width="1" d="M90 0 L90 20 M80 10 L100 10"></path>
<path stroke-linecap="round" stroke="black" stroke-width="1" d="M90 20 L90 40 M80 30 L100 30"></path>
<path stroke-linecap="round" stroke="black" stroke-width="1" d="M90 40 L90 60 M80 50 L100 50"></path>
<path stroke-linecap="round" stroke="black" stroke-width="1" d="M90 60 L90 80 M80 70 L100 70"></path>
<path stroke-linecap="round" stroke="black" stroke-width="1" d="M90 80 L90 100 M80 90 L100 90"></path>
<path stroke-linecap="round" stroke="black" stroke-width="1" d="M90 100 L90 120 M80 110 L100 110"></path>
<path stroke-linecap="round" stroke="black" stroke-width="1" d="M90 120 L90 140 M80 130 L100 130"></path>
<circle cx="90" cy="150" fill="white" stroke="black" r="9.6"></circle>
<circle cx="90" cy="170" fill="black" r="10"></circle>
<path stroke-linecap="round" stroke="black" stroke-width="1" d="M90 180 L90 200 M80 190 L100 190"></path>
<path stroke-linecap="round" stroke="black" stroke-width="1" d="M90 200 L90 210 M80 210 L100 210"></path>
<path stroke-linecap="round" stroke="black" stroke-width="1" d="M110 0 L110 20 M100 10 L120 10"></path>
<path stroke-linecap="round" stroke="black" stroke-width="1" d="M110 20 L110 40 M100 30 L120 30"></path>
<path stroke-linecap="round" stroke="black" stroke-width="1" d="M110 40 L110 60 M100 50 L120 50"></path>
<path stroke-linecap="round" stroke="black" stroke-width="1" d="M110 60 L110 80 M100 70 L120 70"></path>
<path stroke-linecap="round" stroke="black" stroke-width="1" d="M110 80 L110 100 M100 90 L120 90"></path>
<path stroke-linecap="round" stroke="black" stroke-width="1" d="M110 100 L110 120 M100 110 L120 110"></path>
<path stroke-linecap="round" stroke="black" stroke-width="1" d="M110 120 L110 140 M100 130 L120 130"></path>
<path stroke-linecap="round" stroke="black" stroke-width="1" d="M110 140 L110 160 M100 150 L120 150"></path>
<path stroke-linecap="round" stroke="black" stroke-width="1" d="M110 160 L110 180 M100 170 L120 170"></path>
<circle cx="110" cy="190" fill="white" stroke="black" r="9.6"></circle>
<text fill="black" stroke="black" stroke-width="1" text-anchor="middle" dy=".33em" x="110" y="190" font-family="sans-serif" font-style="normal" font-size="14">2</text>
<path stroke-linecap="round" stroke="black" stroke-width="1" d="M110 200 L110 210 M100 210 L120 210"></path>
<path stroke-linecap="round" stroke="black" stroke-width="1" d="M130 0 L130 20 M120 10 L140 10"></path>
<path stroke-linecap="round" stroke="black" stroke-width="1" d="M130 20 L130 40 M120 30 L140 30"></path>
<path stroke-linecap="round" stroke="black" stroke-width="1" d="M130 40 L130 60 M120 50 L140 50"></path>
<path stroke-linecap="round" stroke="black" stroke-width="1" d="M130 60 L130 80 M120 70 L140 70"></path>
<path stroke-linecap="round" stroke="black" stroke-width="1" d="M130 80 L130 100 M120 90 L140 90"></path>
<path stroke-linecap="round" stroke="black" stroke-width="1" d="M130 100 L130 120 M120 110 L140 110"></path>
<path stroke-linecap="round" stroke="black" stroke-width="1" d="M130 120 L130 140 M120 130 L140 130"></path>
<circle cx="130" cy="150" fill="black" r="10"></circle>
<circle cx="130" cy="170" fill="black" r="10"></circle>
<text fill="white" stroke="white" stroke-width="0.4" text-anchor="middle" dy=".33em" x="130" y="170" font-family="sans-serif" font-style="normal" font-size="14">1</text>
<path stroke-linecap="round" stroke="black" stroke-width="1" d="M130 180 L130 200 M120 190 L140 190"></path>
<path stroke-linecap="round" stroke="black" stroke-width="1" d="M130 200 L130 210 M120 210 L140 210"></path>
<path stroke-linecap="round" stroke="black" stroke-width="1" d="M150 0 L150 20 M140 10 L160 10"></path>
<path stroke-linecap="round" stroke="black" stroke-width="1" d="M150 20 L150 40 M140 30 L160 30"></path>
<path stroke-linecap="round" stroke="black" stroke-width="1" d="M150 40 L150 60 M140 50 L160 50"></path>
<path stroke-linecap="round" stroke="black" stroke-width="1" d="M150 60 L150 80 M140 70 L160 70"></path>
<path stroke-linecap="round" stroke="black" stroke-width="1" d="M150 80 L150 100 M140 90 L160 90"></path>
<path stroke-linecap="round" stroke="black" stroke-width="1" d="M150 100 L150 120 M140 110 L160 110"></path>
<path stroke-linecap="round" stroke="black" stroke-width="1" d="M150 120 L150 140 M140 130 L160 130"></path>
<path stroke-linecap="round" stroke="black" stroke-width="1" d="M150 140 L150 160 M140 150 L160 150"></path>
<path stroke-linecap="round" stroke="black" stroke-width="1" d="M150 160 L150 180 M140 170 L160 170"></path>
<path stroke-linecap="round" stroke="black" stroke-width="1" d="M150 180 L150 200 M140 190 L160 190"></path>
<path stroke-linecap="round" stroke="black" stroke-width="1" d="M150 200 L150 210 M140 210 L160 210"></path>
<path stroke-linecap="round" stroke="black" stroke-width="1" d="M170 0 L170 20 M160 10 L180 10"></path>
<path stroke-linecap="round" stroke="black" stroke-width="1" d="M170 20 L170 40 M160 30 L180 30"></path>
<path stroke-linecap="round" stroke="black" stroke-width="1" d="M170 40 L170 60 M160 50 L180 50"></path>
<path stroke-linecap="round" stroke="black" stroke-width="1" d="M170 60 L170 80 M160 70 L180 70"></path>
<path stroke-linecap="round" stroke="black" stroke-width="1" d="M170 80 L170 100 M160 90 L180 90"></path>
<path stroke-linecap="round" stroke="black" stroke-width="1" d="M170 100 L170 120 M160 110 L180 110"></path>
<path stroke-linecap="round" stroke="black" stroke-width="1" d="M170 120 L170 140 M160 130 L180 130"></path>
<path stroke-linecap="round" stroke="black" stroke-width="1" d="M170 140 L170 160 M160 150 L180 150"></path>
<circle cx="170" cy="170" fill="white" stroke="black" r="9.6"></circle>
<path stroke-linecap="round" stroke="black" stroke-width="1" d="M170 180 L170 200 M160 190 L180 190"></path>
<path stroke-linecap="round" stroke="black" stroke-width="1" d="M170 200 L170 210 M160 210 L180 210"></path>
<path stroke-linecap="round" stroke="black" stroke-width="1" d="M190 0 L190 20 M180 10 L200 10"></path>
<path stroke-linecap="round" stroke="black" stroke-width="1" d="M190 20 L190 40 M180 30 L200 30"></path>
<circle cx="190" cy="30" r="3" fill="black"></circle>
<path stroke-linecap="round" stroke="black" stroke-width="1" d="M190 40 L190 60 M180 50 L200 50"></path>
<path stroke-linecap="round" stroke="black" stroke-width="1" d="M190 60 L190 80 M180 70 L200 70"></path>
<path stroke-linecap="round" stroke="black" stroke-width="1" d="M190 80 L190 100 M180 90 L200 90"></path>
<path stroke-linecap="round" stroke="black" stroke-width="1" d="M190 100 L190 120 M180 110 L200 110"></path>
<path stroke-linecap="round" stroke="black" stroke-width="1" d="M190 120 L190 140 M180 130 L200 130"></path>
<path stroke-linecap="round" stroke="black" stroke-width="1" d="M190 140 L190 160 M180 150 L200 150"></path>
<circle cx="190" cy="150" r="3" fill="black"></circle>
<path stroke-linecap="round" stroke="black" stroke-width="1" d="M190 160 L190 180 M180 170 L200 170"></path>
<path stroke-linecap="round" stroke="black" stroke-width="1" d="M190 180 L190 200 M180 190 L200 190"></path>
<path stroke-linecap="round" stroke="black" stroke-width="1" d="M190 200 L190 210 M180 210 L200 210"></path>
<path stroke-linecap="round" stroke="black" stroke-width="1" d="M210 0 L210 20 M200 10 L220 10"></path>
<path stroke-linecap="round" stroke="black" stroke-width="1" d="M210 20 L210 40 M200 30 L220 30"></path>
<path stroke-linecap="round" stroke="black" stroke-width="1" d="M210 40 L210 60 M200 50 L220 50"></path>
<path stroke-linecap="round" stroke="black" stroke-width="1" d="M210 60 L210 80 M200 70 L220 70"></path>
<path stroke-linecap="round" stroke="black" stroke-width="1" d="M210 80 L210 100 M200 90 L220 90"></path>
<path stroke-linecap="round" stroke="black" stroke-width="1" d="M210 100 L210 120 M200 110 L220 110"></path>
<path stroke-linecap="round" stroke="black" stroke-width="1" d="M210 120 L210 140 M200 130 L220 130"></path>
<path stroke-linecap="round" stroke="black" stroke-width="1" d="M210 140 L210 160 M200 150 L220 150"></path>
<path stroke-linecap="round" stroke="black" stroke-width="1" d="M210 160 L210 180 M200 170 L220 170"></path>
<path stroke-linecap="round" stroke="black" stroke-width="1" d="M210 180 L210 200 M200 190 L220 190"></path>
<path stroke-linecap="round" stroke="black" stroke-width="1" d="M210 200 L210 210 M200 210 L220 210"></path>
<path stroke-linecap="round" stroke="black" stroke-width="1" d="M230 0 L230 20 M220 10 L240 10"></path>
<path stroke-linecap="round" stroke="black" stroke-width="1" d="M230 20 L230 40 M220 30 L240 30"></path>
<path stroke-linecap="round" stroke="black" stroke-width="1" d="M230 40 L230 60 M220 50 L240 50"></path>
<path stroke-linecap="round" stroke="black" stroke-width="1" d="M230 60 L230 80 M220 70 L240 70"></path>
<path stroke-linecap="round" stroke="black" stroke-width="1" d="M230 80 L230 100 M220 90 L240 90"></path>
<path stroke-linecap="round" stroke="black" stroke-width="1" d="M230 100 L230 120 M220 110 L240 110"></path>
<path stroke-linecap="round" stroke="black" stroke-width="1" d="M230 120 L230 140 M220 130 L240 130"></path>
<path stroke-linecap="round" stroke="black" stroke-width="1" d="M230 140 L230 160 M220 150 L240 150"></path>
<path stroke-linecap="round" stroke="black" stroke-width="1" d="M230 160 L230 180 M220 170 L240 170"></path>
<path stroke-linecap="round" stroke="black" stroke-width="1" d="M230 180 L230 200 M220 190 L240 190"></path>
<path stroke-linecap="round" stroke="black" stroke-width="1" d="M230 200 L230 210 M220 210 L240 210"></path>
<path stroke-linecap="round" stroke="black" stroke-width="1" d="M250 0 L250 20 M240 10 L260 10"></path>
<path stroke-linecap="round" stroke="black" stroke-width="1" d="M250 20 L250 40 M240 30 L260 30"></path>
<path stroke-linecap="round" stroke="black" stroke-width="1" d="M250 40 L250 60 M240 50 L260 50"></path>
<path stroke-linecap="round" stroke="black" stroke-width="1" d="M250 60 L250 80 M240 70 L260 70"></path>
<path stroke-linecap="round" stroke="black" stroke-width="1" d="M250 80 L250 100 M240 90 L260 90"></path>
<path stroke-linecap="round" stroke="black" stroke-width="1" d="M250 100 L250 120 M240 110 L260 110"></path>
<path stroke-linecap="round" stroke="black" stroke-width="1" d="M250 120 L250 140 M240 130 L260 130"></path>
<path stroke-linecap="round" stroke="black" stroke-width="1" d="M250 140 L250 160 M240 150 L260 150"></path>
<path stroke-linecap="round" stroke="black" stroke-width="1" d="M250 160 L250 180 M240 170 L260 170"></path>
<path stroke-linecap="round" stroke="black" stroke-width="1" d="M250 180 L250 200 M240 190 L260 190"></path>
<path stroke-linecap="round" stroke="black" stroke-width="1" d="M250 200 L250 210 M240 210 L260 210"></path>
<path stroke-linecap="round" stroke="black" stroke-width="1" d="M270 0 L270 20 M260 10 L280 10"></path>
<path stroke-linecap="round" stroke="black" stroke-width="1" d="M270 20 L270 40 M260 30 L280 30"></path>
<path stroke-linecap="round" stroke="black" stroke-width="1" d="M270 40 L270 60 M260 50 L280 50"></path>
<path stroke-linecap="round" stroke="black" stroke-width="1" d="M270 60 L270 80 M260 70 L280 70"></path>
<path stroke-linecap="round" stroke="black" stroke-width="1" d="M270 80 L270 100 M260 90 L280 90"></path>
<path stroke-linecap="round" stroke="black" stroke-width="1" d="M270 100 L270 120 M260 110 L280 110"></path>
<path stroke-linecap="round" stroke="black" stroke-width="1" d="M270 120 L270 140 M260 130 L280 130"></path>
<circle cx="270" cy="150" fill="white" stroke="black" r="9.6"></circle>
<path stroke-linecap="round" stroke="black" stroke-width="1" d="M270 160 L270 180 M260 170 L280 170"></path>
<path stroke-linecap="round" stroke="black" stroke-width="1" d="M270 180 L270 200 M260 190 L280 190"></path>
<path stroke-linecap="round" stroke="black" stroke-width="1" d="M270 200 L270 210 M260 210 L280 210"></path>
<path stroke-linecap="round" stroke="black" stroke-width="1" d="M290 0 L290 20 M280 10 L300 10"></path>
<path stroke-linecap="round" stroke="black" stroke-width="1" d="M290 20 L290 40 M280 30 L300 30"></path>
<path stroke-linecap="round" stroke="black" stroke-width="1" d="M290 40 L290 60 M280 50 L300 50"></path>
<path stroke-linecap="round" stroke="black" stroke-width="1" d="M290 60 L290 80 M280 70 L300 70"></path>
<path stroke-linecap="round" stroke="black" stroke-width="1" d="M290 80 L290 100 M280 90 L300 90"></path>
<path stroke-linecap="round" stroke="black" stroke-width="1" d="M290 100 L290 120 M280 110 L300 110"></path>
<path stroke-linecap="round" stroke="black" stroke-width="1" d="M290 120 L290 140 M280 130 L300 130"></path>
<path stroke-linecap="round" stroke="black" stroke-width="1" d="M290 140 L290 160 M280 150 L300 150"></path>
<path stroke-linecap="round" stroke="black" stroke-width="1" d="M290 160 L290 180 M280 170 L300 170"></path>
<path stroke-linecap="round" stroke="black" stroke-width="1" d="M290 180 L290 200 M280 190 L300 190"></path>
<path stroke-linecap="round" stroke="black" stroke-width="1" d="M290 200 L290 210 M280 210 L300 210"></path>
<path stroke-linecap="round" stroke="black" stroke-width="1" d="M310 0 L310 20 M300 10 L320 10"></path>
<path stroke-linecap="round" stroke="black" stroke-width="1" d="M310 20 L310 40 M300 30 L320 30"></path>
<circle cx="310" cy="30" r="3" fill="black"></circle>
<path stroke-linecap="round" stroke="black" stroke-width="1" d="M310 40 L310 60 M300 50 L320 50"></path>
<path stroke-linecap="round" stroke="black" stroke-width="1" d="M310 60 L310 80 M300 70 L320 70"></path>
<path stroke-linecap="round" stroke="black" stroke-width="1" d="M310 80 L310 100 M300 90 L320 90"></path>
<path stroke-linecap="round" stroke="black" stroke-width="1" d="M310 100 L310 120 M300 110 L320 110"></path>
<path stroke-linecap="round" stroke="black" stroke-width="1" d="M310 120 L310 140 M300 130 L320 130"></path>
<circle cx="310" cy="150" fill="white" stroke="black" r="9.6"></circle>
<path stroke-linecap="round" stroke="black" stroke-width="1" d="M310 160 L310 180 M300 170 L320 170"></path>
<path stroke-linecap="round" stroke="black" stroke-width="1" d="M310 180 L310 200 M300 190 L320 190"></path>
<path stroke-linecap="round" stroke="black" stroke-width="1" d="M310 200 L310 210 M300 210 L320 210"></path>
<path stroke-linecap="round" stroke="black" stroke-width="1" d="M330 0 L330 20 M320 10 L340 10"></path>
<path stroke-linecap="round" stroke="black" stroke-width="1" d="M330 20 L330 40 M320 30 L340 30"></path>
<path stroke-linecap="round" stroke="black" stroke-width="1" d="M330 40 L330 60 M320 50 L340 50"></path>
<path stroke-linecap="round" stroke="black" stroke-width="1" d="M330 60 L330 80 M320 70 L340 70"></path>
<path stroke-linecap="round" stroke="black" stroke-width="1" d="M330 80 L330 100 M320 90 L340 90"></path>
<circle cx="330" cy="110" fill="black" r="10"></circle>
<path stroke-linecap="round" stroke="black" stroke-width="1" d="M330 120 L330 140 M320 130 L340 130"></path>
<path stroke-linecap="round" stroke="black" stroke-width="1" d="M330 140 L330 160 M320 150 L340 150"></path>
<path stroke-linecap="round" stroke="black" stroke-width="1" d="M330 160 L330 180 M320 170 L340 170"></path>
<path stroke-linecap="round" stroke="black" stroke-width="1" d="M330 180 L330 200 M320 190 L340 190"></path>
<path stroke-linecap="round" stroke="black" stroke-width="1" d="M330 200 L330 210 M320 210 L340 210"></path>
<path stroke-linecap="round" stroke="black" stroke-width="1" d="M350 0 L350 20 M340 10 L360 10"></path>
<path stroke-linecap="round" stroke="black" stroke-width="1" d="M350 20 L350 40 M340 30 L360 30"></path>
<path stroke-linecap="round" stroke="black" stroke-width="1" d="M350 40 L350 60 M340 50 L360 50"></path>
<path stroke-linecap="round" stroke="black" stroke-width="1" d="M350 60 L350 80 M340 70 L360 70"></path>
<path stroke-linecap="round" stroke="black" stroke-width="1" d="M350 80 L350 100 M340 90 L360 90"></path>
<path stroke-linecap="round" stroke="black" stroke-width="1" d="M350 100 L350 120 M340 110 L360 110"></path>
<path stroke-linecap="round" stroke="black" stroke-width="1" d="M350 120 L350 140 M340 130 L360 130"></path>
<circle cx="350" cy="150" fill="black" r="10"></circle>
<path stroke-linecap="round" stroke="black" stroke-width="1" d="M350 160 L350 180 M340 170 L360 170"></path>
<path stroke-linecap="round" stroke="black" stroke-width="1" d="M350 180 L350 200 M340 190 L360 190"></path>
<path stroke-linecap="round" stroke="black" stroke-width="1" d="M350 200 L350 210 M340 210 L360 210"></path>
<path stroke-linecap="round" stroke="black" stroke-width="1" d="M370 0 L370 20 M360 10 L370 10"></path>
<path stroke-linecap="round" stroke="black" stroke-width="1" d="M370 20 L370 40 M360 30 L370 30"></path>
<path stroke-linecap="round" stroke="black" stroke-width="1" d="M370 40 L370 60 M360 50 L370 50"></path>
<path stroke-linecap="round" stroke="black" stroke-width="1" d="M370 60 L370 80 M360 70 L370 70"></path>
<path stroke-linecap="round" stroke="black" stroke-width="1" d="M370 80 L370 100 M360 90 L370 90"></path>
<path stroke-linecap="round" stroke="black" stroke-width="1" d="M370 100 L370 120 M360 110 L370 110"></path>
<path stroke-linecap="round" stroke="black" stroke-width="1" d="M370 120 L370 140 M360 130 L370 130"></path>
<path stroke-linecap="round" stroke="black" stroke-width="1" d="M370 140 L370 160 M360 150 L370 150"></path>
<path stroke-linecap="round" stroke="black" stroke-width="1" d="M370 160 L370 180 M360 170 L370 170"></path>
<path stroke-linecap="round" stroke="black" stroke-width="1" d="M370 180 L370 200 M360 190 L370 190"></path>
<path stroke-linecap="round" stroke="black" stroke-width="1" d="M370 200 L370 210 M360 210 L370 210"></path>
</svg>